<svg width="475" height="535" opacity="0.3" viewBox="0 0 475 535" fill="none" xmlns="http://www.w3.org/2000/svg">
<path d="M17.5991 278.574L1 279.496L56.3304 284.107L161.458 288.718L311.772 288.718L417.822 284.107L473.153 279.496L456.553 278.574V255.52L473.153 254.598L417.822 249.987L312.694 245.376H162.38L56.3304 249.987L1 254.598L17.5991 255.52V278.574Z" fill="#05054B"/>
<path d="M456.553 357.881L473.153 358.803L417.822 399.379L312.694 432.577L162.38 432.577L56.3304 399.379L1.00002 359.725L17.5991 357.881V344.602L56.3304 365.258L161.458 389.235L311.772 389.235L417.822 365.258L456.553 343.956V357.881Z" fill="#05054B"/>
<path d="M456.553 176.213V189.492L417.822 168.835L312.694 144.859H162.38L56.3304 168.835L17.5991 190.138V176.213L1 175.291L56.3304 134.715L161.458 101.517H311.772L417.822 134.715L473.153 174.368L456.553 176.213Z" fill="#05054B"/>
<path d="M473.153 358.803H474.153V357.857L473.208 357.805L473.153 358.803ZM456.553 357.881H455.553V358.827L456.498 358.879L456.553 357.881ZM1.00002 359.725L0.889583 358.731L1.52346e-05 358.83L1.51564e-05 359.725L1.00002 359.725ZM17.5991 357.881L17.7095 358.875L18.5991 358.776V357.881H17.5991ZM17.5991 344.602L18.0697 343.719L18.0697 343.719L17.5991 344.602ZM1 279.496L0.94453 278.498L-7.86333e-08 278.55L0 279.496L1 279.496ZM17.5991 278.574L17.6546 279.572L18.5991 279.52V278.574H17.5991ZM17.5991 255.52H18.5991V254.574L17.6546 254.521L17.5991 255.52ZM1 254.598H0V255.544L0.94453 255.596L1 254.598ZM473.153 254.598L473.208 255.596L474.153 255.544V254.598H473.153ZM456.553 255.52L456.498 254.521L455.553 254.574V255.52H456.553ZM456.553 278.574H455.553V279.52L456.498 279.572L456.553 278.574ZM473.153 279.496H474.153V278.55L473.208 278.498L473.153 279.496ZM456.553 189.492L456.083 190.374L456.553 189.492ZM456.553 176.213L456.443 175.219L455.553 175.318V176.213H456.553ZM473.153 174.368L473.263 175.362L474.153 175.264V174.368H473.153ZM473.153 415.978L473.912 416.629L474.153 416.348V415.978H473.153ZM417.822 480.53L418.269 481.424L418.45 481.334L418.581 481.181L417.822 480.53ZM312.694 533.094V534.094H312.931L313.142 533.988L312.694 533.094ZM162.38 533.094L161.93 533.987L162.142 534.094H162.38V533.094ZM56.3304 479.608L55.5711 480.259L55.7014 480.411L55.8801 480.501L56.3304 479.608ZM1.00001 415.056L1.03192e-05 415.056L1.02869e-05 415.426L0.240754 415.706L1.00001 415.056ZM1 199.267L0.518081 198.391L0 198.676V199.267H1ZM56.3304 168.835L56.1099 167.86L55.9722 167.891L55.8485 167.959L56.3304 168.835ZM162.38 144.859V143.859H162.269L162.16 143.884L162.38 144.859ZM312.694 144.859L312.917 143.884L312.807 143.859H312.694V144.859ZM417.822 168.835L418.293 167.953L418.175 167.89L418.045 167.861L417.822 168.835ZM473.153 198.345H474.153V197.745L473.623 197.463L473.153 198.345ZM473.153 334.827L473.634 335.703L474.153 335.418V334.827H473.153ZM417.822 365.258L418.043 366.234L418.18 366.203L418.304 366.135L417.822 365.258ZM311.772 389.235L311.772 390.235L311.884 390.235L311.993 390.21L311.772 389.235ZM161.458 389.235L161.236 390.21L161.346 390.235L161.458 390.235L161.458 389.235ZM56.3304 365.258L55.8598 366.141L55.9777 366.204L56.108 366.233L56.3304 365.258ZM1 335.749L4.6759e-06 335.749L4.72577e-06 336.349L0.529417 336.631L1 335.749ZM1 118.116L0.240743 117.465L0 117.746V118.116H1ZM56.3304 53.5639L55.8832 52.6694L55.7025 52.7597L55.5711 52.9131L56.3304 53.5639ZM161.458 1V0H161.222L161.011 0.105573L161.458 1ZM311.772 1L312.223 0.107131L312.01 0H311.772V1ZM417.822 54.486L418.581 53.8352L418.451 53.6833L418.272 53.5932L417.822 54.486ZM473.153 119.038H474.153V118.668L473.912 118.387L473.153 119.038ZM1 175.291H0V176.237L0.94453 176.289L1 175.291ZM17.5991 176.213H18.5991V175.267L17.6546 175.214L17.5991 176.213ZM473.208 357.805L456.609 356.882L456.498 358.879L473.097 359.802L473.208 357.805ZM457.553 357.881V343.956H455.553V357.881H457.553ZM1.11045 360.719L17.7095 358.875L17.4887 356.887L0.889583 358.731L1.11045 360.719ZM18.5991 357.881V344.602H16.5991V357.881H18.5991ZM1.05547 280.495L17.6546 279.572L17.5436 277.576L0.94453 278.498L1.05547 280.495ZM18.5991 278.574V255.52H16.5991V278.574H18.5991ZM17.6546 254.521L1.05547 253.599L0.94453 255.596L17.5436 256.518L17.6546 254.521ZM473.097 253.599L456.498 254.521L456.609 256.518L473.208 255.596L473.097 253.599ZM455.553 255.52V278.574H457.553V255.52H455.553ZM456.498 279.572L473.097 280.495L473.208 278.498L456.609 277.576L456.498 279.572ZM457.553 189.492V176.213H455.553V189.492H457.553ZM456.664 177.207L473.263 175.362L473.042 173.375L456.443 175.219L456.664 177.207ZM472.393 415.327L417.063 479.879L418.581 481.181L473.912 416.629L472.393 415.327ZM417.375 479.636L312.247 532.199L313.142 533.988L418.269 481.424L417.375 479.636ZM312.694 532.094H162.38V534.094H312.694V532.094ZM162.831 532.201L56.7807 478.715L55.8801 480.501L161.93 533.987L162.831 532.201ZM57.0896 478.957L1.75927 414.405L0.240754 415.706L55.5711 480.259L57.0896 478.957ZM2.00001 415.056L2.00002 359.725L1.51564e-05 359.725L1.03192e-05 415.056L2.00001 415.056ZM0.417496 360.538L55.7479 400.192L56.9129 398.566L1.58253 358.912L0.417496 360.538ZM56.0316 400.333L162.082 433.531L162.679 431.623L56.6291 398.424L56.0316 400.333ZM162.38 433.577L312.694 433.577L312.694 431.577L162.38 431.577L162.38 433.577ZM312.996 433.531L418.123 400.332L417.521 398.425L312.393 431.623L312.996 433.531ZM418.414 400.185L473.744 359.61L472.561 357.997L417.231 398.572L418.414 400.185ZM472.153 358.803V415.978H474.153V358.803H472.153ZM416.822 399.379L416.822 480.53L418.822 480.53L418.822 399.379L416.822 399.379ZM311.694 432.577V533.094H313.694V432.577H311.694ZM161.38 432.577L161.38 533.094L163.38 533.094L163.38 432.577L161.38 432.577ZM57.3304 479.608L57.3304 399.379L55.3304 399.379L55.3304 479.608L57.3304 479.608ZM1.48192 200.143L56.8123 169.712L55.8485 167.959L0.518081 198.391L1.48192 200.143ZM56.5509 169.811L162.601 145.834L162.16 143.884L56.1099 167.86L56.5509 169.811ZM162.38 145.859H312.694V143.859H162.38V145.859ZM312.472 145.834L417.6 169.81L418.045 167.861L312.917 143.884L312.472 145.834ZM417.352 169.718L472.682 199.227L473.623 197.463L418.293 167.953L417.352 169.718ZM472.153 198.345V254.598H474.153V198.345H472.153ZM473.236 253.601L417.905 248.99L417.739 250.983L473.069 255.594L473.236 253.601ZM417.866 248.988L312.738 244.377L312.651 246.375L417.778 250.986L417.866 248.988ZM312.694 244.376H162.38V246.376H312.694V244.376ZM162.337 244.377L56.2869 248.988L56.3738 250.986L162.424 246.375L162.337 244.377ZM56.2473 248.99L0.916954 253.601L1.08305 255.594L56.4134 250.983L56.2473 248.99ZM2 254.598V199.267H0V254.598H2ZM55.3304 168.835V249.987H57.3304V168.835H55.3304ZM163.38 245.376V144.859H161.38V245.376H163.38ZM311.694 144.859V245.376H313.694V144.859H311.694ZM416.822 168.835V249.987H418.822V168.835H416.822ZM472.671 333.95L417.34 364.382L418.304 366.135L473.634 335.703L472.671 333.95ZM417.602 364.283L311.552 388.259L311.993 390.21L418.043 366.234L417.602 364.283ZM311.772 388.235L161.458 388.235L161.458 390.235L311.772 390.235L311.772 388.235ZM161.68 388.26L56.5527 364.283L56.108 366.233L161.236 390.21L161.68 388.26ZM56.801 364.376L1.47059 334.866L0.529417 336.631L55.8598 366.141L56.801 364.376ZM2 335.749L2 279.496L0 279.496L4.6759e-06 335.749L2 335.749ZM0.916954 280.493L56.2473 285.104L56.4134 283.111L1.08305 278.5L0.916954 280.493ZM56.2866 285.106L161.414 289.717L161.502 287.719L56.3742 283.108L56.2866 285.106ZM161.458 289.718L311.772 289.718L311.772 287.718L161.458 287.718L161.458 289.718ZM311.816 289.717L417.866 285.106L417.779 283.108L311.729 287.719L311.816 289.717ZM417.905 285.104L473.236 280.493L473.069 278.5L417.739 283.111L417.905 285.104ZM472.153 279.496V334.827H474.153V279.496H472.153ZM418.822 365.258L418.822 284.107L416.822 284.107L416.822 365.258L418.822 365.258ZM310.772 288.718V389.235H312.772V288.718H310.772ZM162.458 389.235L162.458 288.718L160.458 288.718L160.458 389.235L162.458 389.235ZM57.3304 365.258L57.3304 284.107L55.3304 284.107L55.3304 365.258L57.3304 365.258ZM1.75926 118.767L57.0896 54.2146L55.5711 52.9131L0.240743 117.465L1.75926 118.767ZM56.7776 54.4583L161.905 1.89443L161.011 0.105573L55.8832 52.6694L56.7776 54.4583ZM161.458 2H311.772V0H161.458V2ZM311.322 1.89287L417.372 55.3789L418.272 53.5932L312.223 0.107131L311.322 1.89287ZM417.063 55.1368L472.393 119.689L473.912 118.387L418.581 53.8352L417.063 55.1368ZM472.153 119.038V174.368H474.153V119.038H472.153ZM473.735 173.556L418.405 133.902L417.24 135.528L472.57 175.181L473.735 173.556ZM418.121 133.761L312.071 100.563L311.474 102.471L417.523 135.669L418.121 133.761ZM311.772 100.517H161.458V102.517H311.772V100.517ZM161.157 100.563L56.0292 133.761L56.6315 135.669L161.759 102.47L161.157 100.563ZM55.739 133.909L0.408636 174.484L1.59136 176.097L56.9217 135.521L55.739 133.909ZM2 175.291V118.116H0V175.291H2ZM57.3304 134.715V53.5639H55.3304V134.715H57.3304ZM162.458 101.517V1H160.458V101.517H162.458ZM416.822 54.486V134.715H418.822V54.486H416.822ZM18.5991 190.138V176.213H16.5991V190.138H18.5991ZM17.6546 175.214L1.05547 174.292L0.94453 176.289L17.5436 177.211L17.6546 175.214ZM312.772 101.517V51.2584H310.772V101.517H312.772ZM312.772 51.2584V1H310.772V51.2584H312.772ZM472.671 333.95L456.071 343.08L457.035 344.832L473.634 335.703L472.671 333.95ZM456.071 343.08L417.34 364.382L418.304 366.135L457.035 344.832L456.071 343.08ZM56.801 364.376L18.0697 343.719L17.1285 345.484L55.8598 366.141L56.801 364.376ZM18.0697 343.719L1.47059 334.866L0.529417 336.631L17.1285 345.484L18.0697 343.719ZM1.48192 200.143L18.081 191.014L17.1172 189.261L0.518081 198.391L1.48192 200.143ZM18.081 191.014L56.8123 169.712L55.8485 167.959L17.1172 189.261L18.081 191.014ZM417.352 169.718L456.083 190.374L457.024 188.61L418.293 167.953L417.352 169.718ZM456.083 190.374L472.682 199.227L473.623 197.463L457.024 188.61L456.083 190.374Z" fill="#05054B"/>
</svg>
