<svg width="997" height="702" viewBox="0 0 997 702" fill="none" xmlns="http://www.w3.org/2000/svg">
<path d="M252.525 391.619C282.644 379.982 291.021 329.012 271.237 277.774C251.453 226.536 210.999 194.434 180.88 206.071C150.762 217.709 142.384 268.679 162.169 319.917C181.953 371.154 222.407 403.257 252.525 391.619Z" stroke="#001A72" stroke-width="2" stroke-miterlimit="10"/>
<path d="M191.621 203.621C221.411 192.073 261.255 223.86 280.867 274.396C300.478 324.931 295.346 377 261.346 386.5" stroke="#001A72" stroke-width="2" stroke-miterlimit="10"/>
<path d="M199.846 201C233.846 187 271.681 219.265 291.293 269.801C310.781 320.337 305.346 374.5 270.846 382.5" stroke="#001A72" stroke-width="2" stroke-miterlimit="10"/>
<path d="M209.346 197.5C245.346 183 281.115 215.416 300.727 265.952C320.338 316.488 317.346 367.5 281.346 378" stroke="#001A72" stroke-width="2" stroke-miterlimit="10"/>
<path d="M219.346 194.5C255.846 178.5 290.176 210.822 309.788 261.358C329.4 311.894 326.346 362 292.846 372.5" stroke="#001A72" stroke-width="2" stroke-miterlimit="10"/>
<path d="M246.764 377.666C271.895 367.956 278.532 324.511 261.588 280.63C244.644 236.748 210.536 209.047 185.405 218.757C160.275 228.467 153.638 271.912 170.582 315.793C187.525 359.675 221.634 387.376 246.764 377.666Z" stroke="#001A72" stroke-width="2" stroke-miterlimit="10"/>
<path d="M241.659 358.911C260.778 351.523 265.826 318.466 252.933 285.075C240.04 251.684 214.088 230.605 194.969 237.992C175.849 245.38 170.801 278.437 183.694 311.828C196.587 345.219 222.539 366.299 241.659 358.911Z" stroke="#001A72" stroke-width="2" stroke-miterlimit="10"/>
<path d="M186.656 289.792C184.173 271.167 189.138 255.522 200.309 251.176C215.204 245.465 235.313 261.855 245.367 287.805C255.421 313.756 251.449 339.583 236.554 345.295C226.252 349.268 213.649 342.038 203.346 329" stroke="#001A72" stroke-width="2" stroke-miterlimit="10"/>
<path d="M223.584 335.953C234.391 331.777 237.225 313.043 229.914 294.109C222.603 275.174 207.915 263.21 197.108 267.386C186.302 271.561 183.468 290.296 190.779 309.23C198.09 328.164 212.777 340.128 223.584 335.953Z" stroke="#001A72" stroke-width="2" stroke-miterlimit="10"/>
<path d="M219.037 323.437C225.943 320.769 227.777 308.856 223.133 296.831C218.49 284.805 209.127 277.219 202.221 279.888C195.315 282.556 193.481 294.468 198.124 306.494C202.768 318.52 212.131 326.105 219.037 323.437Z" stroke="#001A72" stroke-width="2" stroke-miterlimit="10"/>
<path d="M225.346 335L251.201 319.84" stroke="#001A72" stroke-width="2" stroke-miterlimit="10"/>
<path d="M196.337 267.442L223.273 256.764" stroke="#001A72" stroke-width="2" stroke-miterlimit="10"/>
<path d="M222.652 358.953L219.846 375.5" stroke="#001A72" stroke-width="2" stroke-miterlimit="10"/>
<path d="M239.846 359.5L241.767 378.944" stroke="#001A72" stroke-width="2" stroke-miterlimit="10"/>
<path d="M261.503 365.906L253.559 351.13L267.958 346.288" stroke="#001A72" stroke-width="2" stroke-miterlimit="10"/>
<path d="M269.323 346.785L258.846 337.5L270.846 333" stroke="#001A72" stroke-width="2" stroke-miterlimit="10"/>
<path d="M270.068 313.26L259.346 310L259.145 307.672L268.206 303.699" stroke="#001A72" stroke-width="2" stroke-miterlimit="10"/>
<path d="M252.938 285.074L262.496 281.349" stroke="#001A72" stroke-width="2" stroke-miterlimit="10"/>
<path d="M250.846 280.5L260.262 276.134" stroke="#001A72" stroke-width="2" stroke-miterlimit="10"/>
<path d="M251.821 260.365L243.381 265.331L241.767 262.848L246.846 252" stroke="#001A72" stroke-width="2" stroke-miterlimit="10"/>
<path d="M240.278 244.099L229.106 248.569L226.996 246.21L231.346 233.5" stroke="#001A72" stroke-width="2" stroke-miterlimit="10"/>
<path d="M226.996 230.068L214.211 238.387L211.605 237.642L212.722 221.376" stroke="#001A72" stroke-width="2" stroke-miterlimit="10"/>
<path d="M220.346 225L198.82 236.152L185.539 218.023" stroke="#001A72" stroke-width="2" stroke-miterlimit="10"/>
<path d="M185.787 245.216L169.402 234.041L170.644 231.309L189.759 224.729" stroke="#001A72" stroke-width="2" stroke-miterlimit="10"/>
<path d="M178.346 259.5L163.692 252.294L163.568 249.562L180.946 242.484" stroke="#001A72" stroke-width="2" stroke-miterlimit="10"/>
<path d="M177.843 264.71L161.582 258.999" stroke="#001A72" stroke-width="2" stroke-miterlimit="10"/>
<path d="M176.602 286.44L162.7 285.57L162.079 283.087L176.602 276.134" stroke="#001A72" stroke-width="2" stroke-miterlimit="10"/>
<path d="M177.346 290.661L163.32 290.413" stroke="#001A72" stroke-width="2" stroke-miterlimit="10"/>
<path d="M182.346 308.5L169.651 313.508" stroke="#001A72" stroke-width="2" stroke-miterlimit="10"/>
<path d="M184.546 314.128L172.381 320.213" stroke="#001A72" stroke-width="2" stroke-miterlimit="10"/>
<path d="M195.22 334.12L186.035 344.922L188.145 347.778L201.302 341.445" stroke="#001A72" stroke-width="2" stroke-miterlimit="10"/>
<path d="M208.346 349L202.171 363.547L203.909 365.409L220.045 357.214" stroke="#001A72" stroke-width="2" stroke-miterlimit="10"/>
<path d="M220.846 376.5L240.846 365.5" stroke="#001A72" stroke-width="2" stroke-miterlimit="10"/>
<path d="M77.1155 378.264C82.3024 380.247 89.1099 375.054 92.3205 366.664C95.5312 358.275 93.9291 349.865 88.7422 347.882C83.5553 345.898 76.7478 351.092 73.5372 359.482C70.3265 367.871 71.9286 376.28 77.1155 378.264Z" stroke="#001A72" stroke-width="2" stroke-miterlimit="10"/>
<path d="M87.0373 347.541C90.3734 345.96 95.6406 345.081 98.4495 346.31C105.033 349.206 106.172 360.003 101.957 370.713C97.5657 381.775 88.1718 387.482 81.5885 384.587C79.0429 383.446 76.0588 379.935 75.0059 376.95" stroke="#001A72" stroke-width="2" stroke-miterlimit="10"/>
<path d="M98.0983 346.31C98.0983 346.31 104.77 346.835 107.579 348.064C114.162 350.96 114.862 362.547 110.208 374.223C105.553 386.075 95.6325 392.836 89.0492 389.94C86.5036 388.799 80.4473 383.972 80.4473 383.972" stroke="#001A72" stroke-width="2" stroke-miterlimit="10"/>
<path d="M87.735 373.7L95.9859 379.141" stroke="#001A72" stroke-width="2" stroke-miterlimit="10"/>
<path d="M93.9706 357.283L104.505 358.51" stroke="#001A72" stroke-width="2" stroke-miterlimit="10"/>
<path d="M114.687 363.249C117.847 364.302 118.724 369.218 117.231 374.397C115.737 379.577 111.435 383.177 108.275 382.124" stroke="#001A72" stroke-width="2" stroke-miterlimit="10"/>
<path d="M123.114 365.706C126.274 366.759 126.975 372.903 125.218 377.995C123.462 383.087 119.423 386.248 116.351 385.107" stroke="#001A72" stroke-width="2" stroke-miterlimit="10"/>
<path d="M131.365 368.864C134.525 369.917 135.139 375.096 133.909 379.31C132.591 383.963 128.377 388.88 125.305 387.739" stroke="#001A72" stroke-width="2" stroke-miterlimit="10"/>
<path d="M105.894 382.094L132.415 389.933C132.502 390.021 132.678 390.02 132.678 390.02C135.75 390.81 139.613 387.649 141.194 382.733C142.951 377.641 141.898 372.725 138.651 371.585L113.634 362.196" stroke="#001A72" stroke-width="2" stroke-miterlimit="10"/>
<path d="M79.0741 240.53C84.3342 238.75 86.2656 230.408 83.388 221.899C80.5104 213.389 73.9134 207.933 68.6533 209.714C63.3932 211.494 61.4618 219.836 64.3394 228.345C67.217 236.855 73.814 242.31 79.0741 240.53Z" stroke="#001A72" stroke-width="2" stroke-miterlimit="10"/>
<path d="M67.1224 210.538C68.6839 207.193 72.1805 203.157 75.1275 202.312C82.045 200.344 89.8086 207.934 93.3923 218.872C97.0646 230.192 93.4691 240.579 86.5515 242.547C83.8633 243.292 79.3258 242.491 76.6114 240.864" stroke="#001A72" stroke-width="2" stroke-miterlimit="10"/>
<path d="M74.857 202.536C74.857 202.536 80.3308 198.686 83.2778 197.841C90.1954 195.872 98.1247 204.351 101.986 216.313C105.959 228.41 102.63 239.945 95.7123 241.913C93.0241 242.657 85.2808 242.802 85.2808 242.802" stroke="#001A72" stroke-width="2" stroke-miterlimit="10"/>
<path d="M84.3432 230.242L94.1685 229.171" stroke="#001A72" stroke-width="2" stroke-miterlimit="10"/>
<path d="M78.6762 213.621L87.5725 207.848" stroke="#001A72" stroke-width="2" stroke-miterlimit="10"/>
<path d="M98.4373 205.004C101.543 203.799 105.353 207.026 107.507 211.968C109.66 216.91 108.642 222.426 105.536 223.631" stroke="#001A72" stroke-width="2" stroke-miterlimit="10"/>
<path d="M106.495 201.522C109.6 200.318 114.059 204.603 115.954 209.646C117.848 214.688 116.753 219.698 113.659 220.779" stroke="#001A72" stroke-width="2" stroke-miterlimit="10"/>
<path d="M114.865 198.693C117.97 197.488 121.746 201.086 123.486 205.116C125.439 209.54 125.328 216.015 122.234 217.096" stroke="#001A72" stroke-width="2" stroke-miterlimit="10"/>
<path d="M103.683 225.126L129.11 214.251C129.233 214.262 129.368 214.15 129.368 214.15C132.238 212.799 133.198 207.901 131.28 203.106C129.386 198.064 125.44 194.949 122.211 196.141L96.9545 204.864" stroke="#001A72" stroke-width="2" stroke-miterlimit="10"/>
<path d="M115.119 73.7563C119.616 77.0147 127.536 73.7602 132.808 66.4873C138.081 59.2144 138.71 50.6771 134.213 47.4188C129.717 44.1605 121.797 47.4149 116.524 54.6878C111.251 61.9607 110.623 70.498 115.119 73.7563Z" stroke="#001A72" stroke-width="2" stroke-miterlimit="10"/>
<path d="M132.655 46.6477C136.286 45.9843 141.602 46.4987 143.997 48.4124C149.606 52.9134 147.912 63.6377 141.068 72.8921C133.964 82.4402 123.413 85.522 117.803 81.021C115.64 79.2602 113.666 75.0967 113.422 71.9413" stroke="#001A72" stroke-width="2" stroke-miterlimit="10"/>
<path d="M143.657 48.3215C143.657 48.3215 149.966 50.5559 152.361 52.4695C157.97 56.9705 155.648 68.3444 148.13 78.4179C140.567 88.6611 129.234 92.6241 123.624 88.1231C121.461 86.3623 116.86 80.1322 116.86 80.1322" stroke="#001A72" stroke-width="2" stroke-miterlimit="10"/>
<path d="M126.558 72.0968L133.12 79.4882" stroke="#001A72" stroke-width="2" stroke-miterlimit="10"/>
<path d="M136.83 57.8534L146.688 61.7652" stroke="#001A72" stroke-width="2" stroke-miterlimit="10"/>
<path d="M155.296 68.9776C158.076 70.8125 157.651 75.7878 154.868 80.4044C152.085 85.0209 146.998 87.3847 144.218 85.5498" stroke="#001A72" stroke-width="2" stroke-miterlimit="10"/>
<path d="M162.8 73.5315C165.58 75.3664 164.667 81.4833 161.653 85.947C158.638 90.4106 153.919 92.4186 151.247 90.5216" stroke="#001A72" stroke-width="2" stroke-miterlimit="10"/>
<path d="M169.953 78.7182C172.733 80.5531 171.985 85.7146 169.707 89.4666C167.23 93.6199 161.886 97.2782 159.214 95.3812" stroke="#001A72" stroke-width="2" stroke-miterlimit="10"/>
<path d="M141.926 84.9043L165.514 99.3404C165.576 99.4479 165.746 99.4933 165.746 99.4933C168.509 101.051 173.059 98.9977 175.858 94.6582C178.873 90.1946 179.128 85.1739 176.286 83.2315L154.552 67.6878" stroke="#001A72" stroke-width="2" stroke-miterlimit="10"/>
<path d="M465.22 648.36C460.586 645.3 452.815 648.895 447.863 656.39C442.911 663.885 442.653 672.441 447.287 675.502C451.92 678.562 459.692 674.967 464.644 667.472C469.596 659.977 469.854 651.421 465.22 648.36Z" stroke="#001A72" stroke-width="2" stroke-miterlimit="10"/>
<path d="M448.877 676.205C445.278 677.025 439.945 676.742 437.469 674.934C431.67 670.68 432.897 659.893 439.333 650.35C446.016 640.503 456.424 636.966 462.223 641.219C464.461 642.885 466.613 646.959 466.995 650.1" stroke="#001A72" stroke-width="2" stroke-miterlimit="10"/>
<path d="M437.812 675.01C437.812 675.01 431.413 673.051 428.937 671.243C423.137 666.99 424.964 655.526 432.038 645.136C439.15 634.574 450.3 630.123 456.1 634.376C458.337 636.042 463.204 642.066 463.204 642.066" stroke="#001A72" stroke-width="2" stroke-miterlimit="10"/>
<path d="M453.864 650.515L446.988 643.415" stroke="#001A72" stroke-width="2" stroke-miterlimit="10"/>
<path d="M444.219 665.191L434.202 661.71" stroke="#001A72" stroke-width="2" stroke-miterlimit="10"/>
<path d="M425.288 654.878C422.431 653.166 422.64 648.177 425.22 643.444C427.8 638.711 432.78 636.129 435.637 637.841" stroke="#001A72" stroke-width="2" stroke-miterlimit="10"/>
<path d="M417.594 650.654C414.737 648.941 415.384 642.79 418.202 638.2C421.02 633.61 425.647 631.399 428.399 633.178" stroke="#001A72" stroke-width="2" stroke-miterlimit="10"/>
<path d="M410.223 645.782C407.366 644.07 407.889 638.881 410.002 635.033C412.297 630.776 417.476 626.89 420.229 628.669" stroke="#001A72" stroke-width="2" stroke-miterlimit="10"/>
<path d="M437.846 638.499L413.763 624.987C413.696 624.882 413.525 624.844 413.525 624.844C410.696 623.408 406.24 625.657 403.632 630.114C400.813 634.704 400.776 639.731 403.7 641.548L426.088 656.134" stroke="#001A72" stroke-width="2" stroke-miterlimit="10"/>
<path d="M376.789 94.2028C381.859 91.9377 383 83.4518 379.338 75.249C375.676 67.0463 368.597 62.233 363.527 64.4982C358.456 66.7633 357.315 75.2492 360.977 83.4519C364.639 91.6547 371.718 96.468 376.789 94.2028Z" stroke="#001A72" stroke-width="2" stroke-miterlimit="10"/>
<path d="M362.186 65.4555C363.427 61.9788 366.53 57.6329 369.385 56.5154C376.088 53.9079 384.529 60.7371 389.121 71.2913C393.838 82.218 391.231 92.8963 384.529 95.5038C381.922 96.4971 377.329 96.1246 374.474 94.7588" stroke="#001A72" stroke-width="2" stroke-miterlimit="10"/>
<path d="M369.013 56.7636C369.013 56.7636 374.102 52.4177 376.957 51.3002C383.66 48.6927 392.348 56.3911 397.313 67.9386C402.402 79.6102 400.168 91.4061 393.465 94.0136C390.859 95.0069 383.163 95.8761 383.163 95.8761" stroke="#001A72" stroke-width="2" stroke-miterlimit="10"/>
<path d="M381.177 83.3352L390.735 81.4727" stroke="#001A72" stroke-width="2" stroke-miterlimit="10"/>
<path d="M373.854 67.4422L382.294 60.8613" stroke="#001A72" stroke-width="2" stroke-miterlimit="10"/>
<path d="M392.721 56.8879C395.7 55.3979 399.796 58.2537 402.402 62.9721C405.009 67.6904 404.513 73.2779 401.534 74.7679" stroke="#001A72" stroke-width="2" stroke-miterlimit="10"/>
<path d="M400.417 52.7901C403.396 51.3001 408.236 55.1493 410.595 59.9918C412.953 64.8343 412.333 69.9251 409.354 71.291" stroke="#001A72" stroke-width="2" stroke-miterlimit="10"/>
<path d="M408.485 49.1893C411.464 47.6993 415.56 50.9276 417.67 54.7768C420.028 58.9985 420.525 65.4551 417.546 66.821" stroke="#001A72" stroke-width="2" stroke-miterlimit="10"/>
<path d="M399.846 76.5L443.984 52.7902C444.108 52.7902 444.233 52.666 444.233 52.666C446.963 51.0519 447.46 46.0852 445.101 41.491C442.743 36.6485 438.523 33.9169 435.42 35.4069L391.231 56.8877" stroke="#001A72" stroke-width="2" stroke-miterlimit="10"/>
<path d="M415.932 44.968C418.911 43.478 423.007 46.3338 425.614 51.0521C428.221 55.7705 427.724 61.358 424.745 62.848" stroke="#001A72" stroke-width="2" stroke-miterlimit="10"/>
<path d="M424.124 40.7461C427.103 39.2561 431.572 43.1053 433.806 47.8236C436.165 52.6661 436.165 56.7636 433.061 58.5019" stroke="#001A72" stroke-width="2" stroke-miterlimit="10"/>
<path d="M508.789 615.085C513.859 612.819 515 604.334 511.338 596.131C507.676 587.928 500.597 583.115 495.527 585.38C490.456 587.645 489.315 596.131 492.977 604.334C496.639 612.537 503.718 617.35 508.789 615.085Z" stroke="#001A72" stroke-width="2" stroke-miterlimit="10"/>
<path d="M494.202 586.455C495.444 582.979 498.547 578.633 501.402 577.515C508.104 574.908 516.545 581.737 521.138 592.291C525.854 603.218 523.248 613.896 516.545 616.504C513.938 617.497 509.346 617.125 506.491 615.759" stroke="#001A72" stroke-width="2" stroke-miterlimit="10"/>
<path d="M501.029 577.639C501.029 577.639 506.118 573.293 508.973 572.176C515.676 569.568 524.365 577.267 529.33 588.814C534.419 600.486 532.185 612.282 525.482 614.889C522.875 615.882 515.18 616.752 515.18 616.752" stroke="#001A72" stroke-width="2" stroke-miterlimit="10"/>
<path d="M513.194 604.335L522.751 602.473" stroke="#001A72" stroke-width="2" stroke-miterlimit="10"/>
<path d="M505.87 588.442L514.311 581.737" stroke="#001A72" stroke-width="2" stroke-miterlimit="10"/>
<path d="M524.737 577.888C527.716 576.398 531.812 579.254 534.419 583.972C537.026 588.69 536.529 594.278 533.55 595.768" stroke="#001A72" stroke-width="2" stroke-miterlimit="10"/>
<path d="M532.433 573.666C535.412 572.176 540.253 576.025 542.611 580.867C544.97 585.71 544.349 590.801 541.37 592.167" stroke="#001A72" stroke-width="2" stroke-miterlimit="10"/>
<path d="M540.501 570.065C543.48 568.575 547.576 571.804 549.686 575.653C552.045 579.874 552.541 586.331 549.562 587.697" stroke="#001A72" stroke-width="2" stroke-miterlimit="10"/>
<path d="M531.846 597L576.001 573.79C576.125 573.79 576.249 573.666 576.249 573.666C578.98 572.052 579.476 567.085 577.118 562.491C574.76 557.649 570.539 554.917 567.436 556.407L523.248 577.888" stroke="#001A72" stroke-width="2" stroke-miterlimit="10"/>
<path d="M547.949 565.843C550.928 564.353 555.024 567.209 557.63 571.928C560.237 576.646 559.74 582.234 556.761 583.724" stroke="#001A72" stroke-width="2" stroke-miterlimit="10"/>
<path d="M556.141 561.746C559.12 560.256 563.588 564.105 565.823 568.824C568.181 573.666 568.181 577.764 565.078 579.502" stroke="#001A72" stroke-width="2" stroke-miterlimit="10"/>
<path d="M272.69 675.169C294.552 664.317 297.33 625.392 278.894 588.227C260.459 551.062 227.792 529.731 205.93 540.582C184.069 551.434 181.291 590.359 199.726 627.524C218.161 664.689 250.829 686.02 272.69 675.169Z" stroke="#001A72" stroke-width="2" stroke-miterlimit="10"/>
<path d="M205.905 540.605L232.84 526.698C254.686 515.896 287.331 537.128 305.826 574.378C324.32 611.628 321.465 650.493 299.619 661.295L274.67 674.829" stroke="#001A72" stroke-width="2" stroke-miterlimit="10"/>
<path d="M233.585 526.326L258.782 513.288L260.52 512.419C282.366 501.617 315.011 522.849 333.505 560.099C352 597.225 349.145 636.213 327.299 647.016L302.35 660.55" stroke="#001A72" stroke-width="2" stroke-miterlimit="10"/>
<path d="M269.793 667.957C288.216 658.812 289.614 624.109 272.915 590.446C256.217 556.782 227.746 536.906 209.323 546.05C190.9 555.195 189.502 589.898 206.201 623.561C222.899 657.225 251.37 677.101 269.793 667.957Z" stroke="#001A72" stroke-width="2" stroke-miterlimit="10"/>
<path d="M271.707 651.456C285.462 644.628 286.165 618.028 273.275 592.043C260.386 566.059 238.786 550.529 225.03 557.357C211.274 564.185 210.572 590.785 223.462 616.769C236.351 642.754 257.951 658.284 271.707 651.456Z" stroke="#001A72" stroke-width="2" stroke-miterlimit="10"/>
<path d="M239.152 625.981C244.136 623.531 244.965 615.009 241.005 606.947C237.045 598.884 229.794 594.334 224.811 596.783C219.827 599.233 218.998 607.755 222.958 615.817C226.918 623.88 234.169 628.43 239.152 625.981Z" stroke="#001A72" stroke-width="2" stroke-miterlimit="10"/>
<path d="M223.531 597.846C224.648 594.369 227.627 589.899 230.482 588.657C237.06 585.802 245.749 592.258 250.714 602.688C255.803 613.491 253.693 624.169 246.99 627.025C244.508 628.142 239.791 627.894 236.936 626.652" stroke="#001A72" stroke-width="2" stroke-miterlimit="10"/>
<path d="M230.109 588.782C230.109 588.782 234.95 584.188 237.805 582.946C244.384 580.09 253.321 587.416 258.782 598.839C264.244 610.263 262.506 622.183 255.927 625.038C253.445 626.156 245.749 627.273 245.749 627.273" stroke="#001A72" stroke-width="2" stroke-miterlimit="10"/>
<path d="M243.142 614.981L252.7 612.746" stroke="#001A72" stroke-width="2" stroke-miterlimit="10"/>
<path d="M235.323 599.336L243.391 592.507" stroke="#001A72" stroke-width="2" stroke-miterlimit="10"/>
<path d="M259.279 512.543C251.459 485.972 256.051 461.635 271.815 453.813C291.055 444.252 319.852 463.001 336.112 495.781C350.138 523.967 350.262 553.394 337.726 567.053" stroke="#001A72" stroke-width="2" stroke-miterlimit="10"/>
<path d="M315.846 433.5C335.086 423.939 364.04 443.258 380.301 476.038C394.327 504.224 394.451 533.651 381.914 547.31" stroke="#001A72" stroke-width="2" stroke-miterlimit="10"/>
<path d="M386.879 400.793C406.119 391.232 434.916 409.981 451.176 442.761C465.202 470.947 465.326 500.375 452.79 514.033L337.353 568.791" stroke="#001A72" stroke-width="2" stroke-miterlimit="10"/>
<path d="M270.846 454L388.989 400.172" stroke="#001A72" stroke-width="2" stroke-miterlimit="10"/>
<path d="M354.979 415.321L351.255 395.578C351.255 395.578 349.518 372.856 364.661 376.208C379.804 379.561 405.498 390.487 405.498 390.487L495.861 456.047C495.861 456.047 523.665 487.958 494.992 502.734C466.319 517.51 451.176 522.104 451.176 522.104L339.712 573.882" stroke="#001A72" stroke-width="2" stroke-miterlimit="10"/>
<path d="M359.572 375.836C359.572 375.836 370.371 370 374.715 370C381.914 370 418.407 384.776 418.407 384.776L505.419 447.853C505.419 447.853 526.396 473.927 521.431 485.227C517.955 492.925 498.343 501.244 498.343 501.244" stroke="#001A72" stroke-width="2" stroke-miterlimit="10"/>
<path d="M370.456 401.956C373.603 400.138 374.375 395.584 372.182 391.783C369.988 387.983 365.659 386.375 362.512 388.192C359.366 390.009 358.594 394.564 360.787 398.364C362.981 402.165 367.31 403.773 370.456 401.956Z" stroke="#001A72" stroke-width="2" stroke-miterlimit="10"/>
<path d="M494.468 483.794C497.615 481.977 498.387 477.423 496.193 473.622C494 469.822 489.671 468.214 486.524 470.031C483.378 471.848 482.605 476.402 484.799 480.203C486.993 484.004 491.322 485.612 494.468 483.794Z" stroke="#001A72" stroke-width="2" stroke-miterlimit="10"/>
<path d="M271.815 510.06C268.96 496.65 271.443 485.35 278.766 481.625C289.193 476.41 305.453 488.206 315.259 507.949C321.217 519.993 323.327 532.285 321.713 541.101" stroke="#001A72" stroke-width="2" stroke-miterlimit="10"/>
<path d="M281.869 510.805C280.504 504.721 281.373 499.506 284.724 497.768C289.441 495.284 297.013 500.499 301.605 509.315C304.46 514.779 305.591 519.027 304.846 523" stroke="#001A72" stroke-width="2" stroke-miterlimit="10"/>
<path d="M248.143 84.6133V90.6975" stroke="#001A72" stroke-width="2" stroke-miterlimit="10"/>
<path d="M247.895 104.107L247.15 177.117" stroke="#001A72" stroke-width="2" stroke-miterlimit="10" stroke-dasharray="10.71 10.71"/>
<path d="M248.143 84.6133C264.047 84.6133 276.94 71.7162 276.94 55.8067C276.94 39.8972 264.047 27 248.143 27C232.239 27 219.346 39.8972 219.346 55.8067C219.346 71.7162 232.239 84.6133 248.143 84.6133Z" stroke="#001A72" stroke-width="2" stroke-miterlimit="10"/>
<path d="M249.875 43.1499H246.964V46.1319C246.964 46.7709 246.786 47.3034 246.502 47.6939C246.218 48.0844 245.792 48.2619 245.224 48.2619H241.177V50.9244H245.189C245.97 50.9244 246.538 50.7824 246.893 50.4629V67.9999H249.875V43.1499Z" fill="#001A72"/>
<path d="M124.94 631.807L131.146 631.931" stroke="#001A72" stroke-width="2" stroke-miterlimit="10"/>
<path d="M144.304 631.931L219.346 631.931" stroke="#001A72" stroke-width="2" stroke-miterlimit="10" stroke-dasharray="10.64 10.64"/>
<path d="M96.1432 660.613C112.047 660.613 124.94 647.716 124.94 631.807C124.94 615.897 112.047 603 96.1432 603C80.2391 603 67.3462 615.897 67.3462 631.807C67.3462 647.716 80.2391 660.613 96.1432 660.613Z" stroke="#001A72" stroke-width="2" stroke-miterlimit="10"/>
<path d="M83.8165 636.267V638.929H96.845V645H99.827V638.929H103.839V636.196H99.827V620.15H96.277L83.8165 636.267ZM87.0115 636.196L96.845 623.487V636.196H87.0115Z" fill="#001A72"/>
<path d="M129.94 481.807L136.022 481.931" stroke="#001A72" stroke-width="2" stroke-miterlimit="10"/>
<path d="M149.304 482.055L222.413 482.8" stroke="#001A72" stroke-width="2" stroke-miterlimit="10" stroke-dasharray="10.71 10.71"/>
<path d="M229.116 482.924H235.198" stroke="#001A72" stroke-width="2" stroke-miterlimit="10"/>
<path d="M101.143 510.613C117.047 510.613 129.94 497.716 129.94 481.807C129.94 465.897 117.047 453 101.143 453C85.239 453 72.3462 465.897 72.3462 481.807C72.3462 497.716 85.239 510.613 101.143 510.613Z" stroke="#001A72" stroke-width="2" stroke-miterlimit="10"/>
<path d="M108.105 484.173C107.076 483.143 105.833 482.469 104.378 482.185C105.798 481.901 106.898 481.262 107.75 480.268C108.567 479.274 108.993 478.031 108.993 476.505C108.993 475.227 108.638 474.055 107.963 473.061C107.289 472.067 106.33 471.322 105.052 470.754C103.774 470.221 102.283 469.937 100.579 469.937C98.0585 469.937 96.035 470.576 94.544 471.854C93.0175 473.132 92.2365 474.907 92.2365 477.144H95.2185C95.2185 475.759 95.751 474.659 96.745 473.842C97.739 473.026 99.0525 472.6 100.686 472.6C102.212 472.6 103.455 472.99 104.449 473.7C105.443 474.446 105.94 475.44 105.94 476.682C105.94 477.996 105.443 479.061 104.484 479.842C103.49 480.658 102.106 481.049 100.295 481.049H98.3425V483.64H100.473C102.39 483.64 103.916 484.031 104.981 484.776C106.046 485.557 106.579 486.587 106.579 487.9C106.579 489.32 106.011 490.421 104.91 491.273C103.81 492.125 102.425 492.551 100.757 492.551C98.9105 492.551 97.455 492.089 96.319 491.166C95.183 490.243 94.615 488.965 94.615 487.332H91.562C91.562 489.782 92.3785 491.699 94.0115 493.119C95.6445 494.539 97.81 495.213 100.579 495.213C102.354 495.213 103.952 494.929 105.336 494.326C106.685 493.758 107.75 492.906 108.496 491.841C109.241 490.776 109.632 489.533 109.632 488.113C109.632 486.516 109.099 485.202 108.105 484.173Z" fill="#001A72"/>
<path d="M410.143 228.613V234.697" stroke="#001A72" stroke-width="2" stroke-miterlimit="10"/>
<path d="M410.143 246.245L410.143 359" stroke="#001A72" stroke-width="2" stroke-miterlimit="10" stroke-dasharray="9.31 9.31"/>
<path d="M410.143 228.613C426.047 228.613 438.94 215.716 438.94 199.807C438.94 183.897 426.047 171 410.143 171C394.239 171 381.346 183.897 381.346 199.807C381.346 215.716 394.239 228.613 410.143 228.613Z" stroke="#001A72" stroke-width="2" stroke-miterlimit="10"/>
<path d="M411.041 201.101L401.385 209.479V212H418.496V209.266H405.503L412.958 202.947C414.129 201.953 415.088 201.03 415.833 200.249C416.543 199.468 417.147 198.581 417.608 197.587C418.07 196.628 418.318 195.563 418.318 194.356C418.318 192.084 417.537 190.274 416.046 188.925C414.555 187.576 412.461 186.901 409.834 186.901C408.201 186.901 406.745 187.256 405.467 187.931C404.189 188.641 403.231 189.564 402.556 190.771C401.846 191.978 401.527 193.362 401.527 194.924V195.563H404.509V195.102C404.509 193.398 404.97 192.049 405.964 191.055C406.923 190.061 408.201 189.564 409.834 189.564C411.467 189.564 412.78 190.025 413.774 190.877C414.768 191.765 415.265 192.972 415.265 194.498C415.265 195.741 414.91 196.841 414.2 197.835C413.49 198.829 412.425 199.894 411.041 201.101Z" fill="#001A72"/>
<path d="M2.86887 700.68H644.051V576.778L489.445 312.124L558.846 268H487.087V2.12793H2L2.86887 700.68Z" stroke="#001A72" stroke-width="2" stroke-miterlimit="10"/>
<path d="M915.346 34.0002L940.195 24.3203L954.796 30.3927L954.632 111M963.346 126.5C974.846 151.5 958.333 154.869 949.874 158.241C949.874 158.241 951.187 163.328 954.14 168.908C957.093 174.324 960.21 175.966 960.21 175.966V208.789L946.921 216.339C946.921 216.339 962.179 221.59 964.804 223.232C967.429 224.873 979.898 245.716 979.898 245.716C979.898 245.716 987.937 246.372 992.202 254.414C996.468 262.456 995.156 271.154 995.156 271.154C995.156 271.154 995.156 290.52 990.726 302.008C986.296 313.497 986.296 324.493 986.296 324.493C986.296 324.493 987.609 346.977 979.898 349.603C972.187 352.229 959.226 345.171 959.226 345.171H922.476L739.709 437.898L739.346 468L814.686 429.528" stroke="#001A72" stroke-width="2" stroke-miterlimit="10"/>
<path d="M915.346 350C915.346 350 914.522 381.043 907.271 392.522C899.855 404.261 894.086 408.957 881.397 414.565C868.707 420.174 842.338 431 828.659 431C815.145 431 804.762 427.609 797.346 421.217" stroke="#001A72" stroke-width="2" stroke-miterlimit="10"/>
<path d="M914.108 374.713C914.108 374.713 927.398 377.01 941.179 368.312C951.843 361.583 956.929 353.541 959.882 346.812" stroke="#001A72" stroke-width="2" stroke-miterlimit="10"/>
<path d="M914.437 364.373C914.437 364.373 924.116 365.358 932.483 360.434C940.851 355.675 946.757 345.664 946.757 345.664" stroke="#001A72" stroke-width="2" stroke-miterlimit="10"/>
<path d="M891.41 332.669C898.786 328.409 899.55 315.92 893.117 304.774C886.684 293.628 875.489 288.045 868.113 292.306C860.737 296.566 859.973 309.055 866.406 320.201C872.84 331.347 884.034 336.929 891.41 332.669Z" stroke="#001A72" stroke-width="2" stroke-miterlimit="10"/>
<path d="M955.738 299.712C963.114 295.452 963.878 282.963 957.445 271.816C951.011 260.67 939.817 255.088 932.441 259.348C925.065 263.608 924.301 276.097 930.734 287.243C937.167 298.39 948.362 303.972 955.738 299.712Z" stroke="#001A72" stroke-width="2" stroke-miterlimit="10"/>
<path d="M873.257 290.684L927.89 263.276" stroke="#001A72" stroke-width="2" stroke-miterlimit="10"/>
<path d="M893.764 331.878L955.78 299.71" stroke="#001A72" stroke-width="2" stroke-miterlimit="10"/>
<path d="M951.346 302L987.773 279.688L995.346 268" stroke="#001A72" stroke-width="2" stroke-miterlimit="10"/>
<path d="M932.484 259.338L963.327 246.865L979.406 245.88" stroke="#001A72" stroke-width="2" stroke-miterlimit="10"/>
<path d="M672.846 445.5L703.346 471" stroke="#001A72" stroke-width="2" stroke-miterlimit="10"/>
<path d="M731.846 462L739.346 468" stroke="#001A72" stroke-width="2"/>
<path d="M722.319 471.05C715.1 475.317 706.897 475.153 702.795 470.229C698.037 464.485 700.827 454.638 708.866 447.909C716.905 441.345 727.241 440.524 731.835 446.268C735.28 450.535 734.788 457.1 731.014 462.844" stroke="#001A72" stroke-width="2" stroke-miterlimit="10"/>
<path d="M665.306 445.114C678.724 437.364 677.812 410.656 663.269 385.459C648.726 360.263 626.06 346.119 612.642 353.869C599.224 361.619 600.135 388.327 614.678 413.523C629.221 438.72 651.888 452.864 665.306 445.114Z" stroke="#001A72" stroke-width="2" stroke-miterlimit="10"/>
<path d="M656.968 428.725C665.992 423.513 665.374 405.543 655.589 388.588C645.803 371.634 630.554 362.114 621.531 367.326C612.507 372.538 613.125 390.507 622.91 407.462C632.696 424.417 647.945 433.936 656.968 428.725Z" stroke="#001A72" stroke-width="2" stroke-miterlimit="10"/>
<path d="M657.88 421.072C664.786 417.084 663.956 402.715 656.028 388.979C648.1 375.242 636.075 367.339 629.169 371.328C622.264 375.316 623.094 389.684 631.022 403.421C638.95 417.157 650.975 425.06 657.88 421.072Z" stroke="#001A72" stroke-width="2" stroke-miterlimit="10"/>
<path d="M684.346 442C684.346 442 689.67 430.349 689.178 417.055C687.537 378.98 640.943 306.604 640.943 306.604" stroke="#001A72" stroke-width="2" stroke-miterlimit="10"/>
<path d="M620.107 303.813C638.975 322.687 669.654 394.571 668.178 395.063" stroke="#001A72" stroke-width="2" stroke-miterlimit="10"/>
<path d="M639.081 307.006C647.791 301.976 648.681 287.208 641.07 274.021C633.459 260.833 620.228 254.221 611.518 259.252C602.808 264.282 601.918 279.051 609.529 292.238C617.14 305.425 630.371 312.037 639.081 307.006Z" stroke="#001A72" stroke-width="2" stroke-miterlimit="10"/>
<path d="M915.913 146.424C942.009 146.424 963.163 136.505 963.163 124.268C963.163 112.032 942.009 102.112 915.913 102.112C889.818 102.112 868.663 112.032 868.663 124.268C868.663 136.505 889.818 146.424 915.913 146.424Z" stroke="#001A72" stroke-width="2" stroke-miterlimit="10"/>
<path d="M852.257 17.9195C865.123 17.9195 875.554 14.6864 875.554 10.6983C875.554 6.71009 865.123 3.47705 852.257 3.47705C839.39 3.47705 828.96 6.71009 828.96 10.6983C828.96 14.6864 839.39 17.9195 852.257 17.9195Z" stroke="#001A72" stroke-width="2" stroke-miterlimit="10"/>
<path d="M654.217 180.333C662.949 176.79 664.92 161.32 658.619 145.781C652.318 130.242 640.131 120.517 631.398 124.061C622.665 127.604 620.694 143.074 626.996 158.613C633.297 174.152 645.484 183.877 654.217 180.333Z" stroke="#001A72" stroke-width="2" stroke-miterlimit="10"/>
<path d="M605.834 392.765L596.974 382.59V334.339L609.771 326.297L622.076 304.634" stroke="#001A72" stroke-width="2" stroke-miterlimit="10"/>
<path d="M619.346 351.5C619.346 351.5 623.424 333.134 638.846 331" stroke="#001A72" stroke-width="2" stroke-miterlimit="10"/>
<path d="M656.365 331.714C656.365 331.714 674.74 335.324 690.819 360.763C703.944 381.442 707.225 401.792 707.225 401.792L722.647 395.064L724.846 386L759.397 371.102L759.233 392.766L723.467 426.738L739.053 438.063" stroke="#001A72" stroke-width="2" stroke-miterlimit="10"/>
<path d="M669.162 356.823C669.162 356.823 679.662 363.716 687.865 385.872C696.725 409.833 697.534 430.794 688.346 439C678.831 447.534 663.346 446 663.346 446" stroke="#001A72" stroke-width="2" stroke-miterlimit="10"/>
<path d="M683.346 442.5C683.346 442.5 696.846 436.5 700.662 432.974C704.479 429.449 715.592 420.337 697.709 373.399" stroke="#001A72" stroke-width="2" stroke-miterlimit="10"/>
<path d="M730.809 471.181C733.18 468.81 733.855 465.64 732.317 464.102C730.78 462.564 727.611 463.239 725.241 465.611C722.87 467.982 722.195 471.151 723.733 472.689C725.271 474.228 728.439 473.552 730.809 471.181Z" stroke="#001A72" stroke-width="2" stroke-miterlimit="10"/>
<path d="M729.701 463.008L721.662 455.459C721.662 455.459 718.381 453.982 715.592 457.428C713.623 460.054 714.936 463.172 714.936 463.172L722.846 470.5" stroke="#001A72" stroke-width="2" stroke-miterlimit="10"/>
<path d="M666.701 337.129L694.264 301.516L713.459 302.336" stroke="#001A72" stroke-width="2" stroke-miterlimit="10"/>
<path d="M726.748 312.84L733.475 327.775C733.475 327.775 729.209 332.37 729.537 337.458C730.194 344.679 736.264 348.289 736.264 348.289L733.311 367.327L725.108 385.872" stroke="#001A72" stroke-width="2" stroke-miterlimit="10"/>
<path d="M733.639 327.775L751.346 322.5" stroke="#001A72" stroke-width="2" stroke-miterlimit="10"/>
<path d="M736.428 348.29L756.936 340.084" stroke="#001A72" stroke-width="2" stroke-miterlimit="10"/>
<path d="M733.639 367.327L760.381 356.823" stroke="#001A72" stroke-width="2" stroke-miterlimit="10"/>
<path d="M739.874 310.378L755.295 326.79L759.889 356.495L759.561 371.102" stroke="#001A72" stroke-width="2" stroke-miterlimit="10"/>
<path d="M738.051 312.527C745.741 308.085 746.539 295.067 739.834 283.45C733.129 271.833 721.459 266.016 713.769 270.457C706.08 274.899 705.281 287.917 711.986 299.534C718.691 311.151 730.361 316.968 738.051 312.527Z" stroke="#001A72" stroke-width="2" stroke-miterlimit="10"/>
<path d="M738.362 299.075C742.442 296.718 742.738 289.59 739.023 283.153C735.308 276.717 728.989 273.409 724.908 275.766C720.828 278.123 720.532 285.251 724.247 291.688C727.962 298.124 734.281 301.432 738.362 299.075Z" stroke="#001A72" stroke-width="2" stroke-miterlimit="10"/>
<path d="M635.706 292.465C639.787 290.109 640.083 282.981 636.368 276.544C632.653 270.107 626.333 266.8 622.253 269.157C618.173 271.513 617.877 278.642 621.592 285.078C625.307 291.515 631.626 294.822 635.706 292.465Z" stroke="#001A72" stroke-width="2" stroke-miterlimit="10"/>
<path d="M642.42 304.47L659.811 294.13C659.811 294.13 661.615 285.596 660.631 280.837C659.647 276.077 655.709 269.02 655.709 269.02" stroke="#001A72" stroke-width="2" stroke-miterlimit="10"/>
<path d="M710.178 295.279L622.076 252.772C622.076 252.772 616.826 250.147 612.56 254.085C610.264 256.219 609.279 261.635 609.279 261.635" stroke="#001A72" stroke-width="2" stroke-miterlimit="10"/>
<path d="M613.545 253.265L628.31 245.059C628.31 245.059 632.74 243.254 637.662 245.716C642.42 248.177 707.881 279.524 707.881 279.524" stroke="#001A72" stroke-width="2" stroke-miterlimit="10"/>
<path d="M742.498 306.932L756.936 297.084C756.936 297.084 760.873 285.596 756.772 276.57C752.506 267.051 743.811 262.291 738.397 259.994C737.741 259.665 729.701 256.383 717.889 251.46C680.811 236.032 606.49 205.178 606.49 205.178" stroke="#001A72" stroke-width="2" stroke-miterlimit="10"/>
<path d="M601.846 216.5L728.225 271.154" stroke="#001A72" stroke-width="2" stroke-miterlimit="10"/>
<path d="M596.974 334.339L608.295 344.022V357.152" stroke="#001A72" stroke-width="2" stroke-miterlimit="10"/>
<path d="M718.217 251.296C718.381 242.598 721.17 235.869 726.584 232.586C739.053 225.365 761.038 239.808 775.639 265.082C790.241 290.356 791.717 316.615 779.249 323.836C769.897 329.252 755.295 322.523 742.334 308.245" stroke="#001A72" stroke-width="2" stroke-miterlimit="10"/>
<path d="M618.467 250.311L613.346 221.5" stroke="#001A72" stroke-width="2" stroke-miterlimit="10"/>
<path d="M611.576 207.312L600.584 127.058V82.2539L668.178 102.933L708.701 246.864" stroke="#001A72" stroke-width="2" stroke-miterlimit="10"/>
<path d="M599.763 81.4332L619.451 73.8838L686.225 94.5627L726.584 232.914" stroke="#001A72" stroke-width="2" stroke-miterlimit="10"/>
<path d="M668.178 102.933L686.225 94.5625" stroke="#001A72" stroke-width="2" stroke-miterlimit="10"/>
<path d="M875.718 11.6831V25.6332C875.718 30.2285 865.218 34.1673 852.421 34.1673C839.46 34.1673 829.124 30.3926 829.124 25.6332V11.6831" stroke="#001A72" stroke-width="2" stroke-miterlimit="10"/>
<path d="M664.732 86.6852L680.482 80.941L686.225 71.7504L829.452 24.4844" stroke="#001A72" stroke-width="2" stroke-miterlimit="10"/>
<path d="M701.154 84.5516L710.834 88.9828L749.225 76.674L749.553 70.1092L764.647 71.5863L796.803 60.2621V54.1898L810.092 55.1745L841.264 44.3427L841.757 38.7627L856.358 40.568L881.624 31.8697L885.346 26.5L875.846 21.5" stroke="#001A72" stroke-width="2" stroke-miterlimit="10"/>
<path d="M691.803 109.989L701.483 105.558L709.85 108.02L749.225 94.2341L750.209 88.9823H762.842L797.788 75.3605L797.46 71.0934H811.569L843.89 59.9334L842.741 53.6969L854.225 55.6663L880.64 46.4757L885.726 40.5674V26.125" stroke="#001A72" stroke-width="2" stroke-miterlimit="10"/>
<path d="M855.538 40.5674V55.6663" stroke="#001A72" stroke-width="2" stroke-miterlimit="10"/>
<path d="M810.092 55.1738V72.078" stroke="#001A72" stroke-width="2" stroke-miterlimit="10"/>
<path d="M796.803 60.2617V76.3453" stroke="#001A72" stroke-width="2" stroke-miterlimit="10"/>
<path d="M764.647 72.2427V88.9827" stroke="#001A72" stroke-width="2" stroke-miterlimit="10"/>
<path d="M748.733 77.3301V94.2343" stroke="#001A72" stroke-width="2" stroke-miterlimit="10"/>
<path d="M841.264 44.3428V60.2622" stroke="#001A72" stroke-width="2" stroke-miterlimit="10"/>
<path d="M693.936 110.482C693.936 110.482 716.412 124.432 738.069 115.734C759.725 107.036 751.85 98.1735 751.85 98.1735C751.85 98.1735 770.389 106.379 791.389 98.83C812.389 91.2806 802.71 80.9411 802.71 80.9411C802.71 80.9411 827.155 85.0441 840.444 78.8076C853.733 72.5711 849.632 63.3805 849.632 63.3805C849.632 63.3805 868.991 68.1399 884.413 61.9034C899.835 55.6669 897.21 44.3428 897.21 44.3428" stroke="#001A72" stroke-width="2" stroke-miterlimit="10"/>
<path d="M885.846 38C885.846 38 893.601 38.9264 898.194 46.1476C906.434 59.1 904.346 69 904.346 83.5" stroke="#001A72" stroke-width="2" stroke-miterlimit="10"/>
<path d="M881.296 23.9917V11.1904L912.468 21.0375C912.468 21.0375 910.827 28.2587 913.944 32.3617C915.749 34.6593 921.819 37.2852 923.296 37.6135V85.2077" stroke="#001A72" stroke-width="2" stroke-miterlimit="10"/>
<path d="M880.968 11.0265L910.499 2L939.702 10.6983C940.03 10.8624 940.03 11.1906 939.702 11.3547L912.468 21.2018" stroke="#001A72" stroke-width="2" stroke-miterlimit="10"/>
<path d="M886.846 94.0002L908.038 81.7617L923.952 85.5364L906.398 97.1888V102.5" stroke="#001A72" stroke-width="2" stroke-miterlimit="10"/>
<path d="M753.327 103.425V147.409" stroke="#001A72" stroke-width="2" stroke-miterlimit="10"/>
<path d="M805.334 87.1772V129.027" stroke="#001A72" stroke-width="2" stroke-miterlimit="10"/>
<path d="M850.124 69.124V94.5624" stroke="#001A72" stroke-width="2" stroke-miterlimit="10"/>
<path d="M707.225 165.462L721.991 156.764L734.459 160.046L753.327 146.26C753.327 146.26 772.194 153.481 795.327 141.501C803.53 137.234 805.007 128.207 805.007 128.207" stroke="#001A72" stroke-width="2" stroke-miterlimit="10"/>
<path d="M752.803 217.273C757.001 215.57 757.948 208.128 754.916 200.653C751.885 193.177 746.024 188.498 741.826 190.202C737.627 191.905 736.681 199.346 739.712 206.822C742.744 214.298 748.605 218.977 752.803 217.273Z" stroke="#001A72" stroke-width="2" stroke-miterlimit="10"/>
<path d="M741.35 190.079L761.858 180.889C761.858 180.889 770.881 180.561 774.655 189.259C778.428 197.957 776.623 198.614 781.053 211.087C785.483 223.56 795.819 236.525 795.819 236.525C795.819 236.525 806.811 249.162 805.827 251.624C804.842 254.25 787.78 262.291 787.78 262.291L777.444 267.379" stroke="#001A72" stroke-width="2" stroke-miterlimit="10"/>
<path d="M748.569 187.289C748.569 187.289 758.084 188.274 760.873 197.3C763.662 206.327 763.827 208.953 764.483 213.384C766.123 225.036 779.905 241.12 781.217 242.761C787.944 251.788 792.21 260.486 792.21 260.486" stroke="#001A72" stroke-width="2" stroke-miterlimit="10"/>
<path d="M783.022 322.195L788.764 323.836C788.764 323.836 811.241 315.138 826.827 304.47C842.413 293.802 857.179 283.955 857.671 279.524C858.163 275.257 860.788 245.551 857.015 242.761C853.241 239.971 845.858 248.998 841.593 248.341C837.327 247.685 831.749 242.269 831.749 238.166C831.749 234.063 830.765 228.975 830.765 228.975C798.838 218.465 819.233 235.84 801.233 243.254" stroke="#001A72" stroke-width="2" stroke-miterlimit="10"/>
<path d="M729.702 231.602C729.702 231.602 737.905 217.816 745.944 215.846" stroke="#001A72" stroke-width="2" stroke-miterlimit="10"/>
<path d="M798.28 256.712C798.28 256.712 806.811 271.154 806.811 288.058C806.811 304.963 802.709 317.764 802.709 317.764" stroke="#001A72" stroke-width="2" stroke-miterlimit="10"/>
<path d="M902.746 250.899C903.825 246.872 902.5 243.017 899.786 242.29C897.073 241.563 893.999 244.238 892.921 248.266C891.842 252.293 893.167 256.147 895.88 256.874C898.593 257.601 901.667 254.926 902.746 250.899Z" stroke="#001A72" stroke-width="2" stroke-miterlimit="10"/>
<path d="M960.046 175.965C960.046 175.965 946.265 186.961 934.616 186.305C922.968 185.648 916.569 180.889 916.569 180.889C916.569 180.889 908.694 188.931 896.718 188.931C883.265 188.931 878.671 185.32 878.671 185.32C878.671 185.32 861.116 195.495 844.546 197.957C829.124 200.255 823.546 199.27 814.03 198.285C804.022 197.301 774.819 189.259 774.819 189.259" stroke="#001A72" stroke-width="2" stroke-miterlimit="10"/>
<path d="M911.484 184.664V240.464L911.155 261.635L860.296 285.268L868.171 292.325" stroke="#001A72" stroke-width="2" stroke-miterlimit="10"/>
<path d="M949.218 215.025L928.054 219.292L928.218 220.605L952.828 227.991C955.125 228.811 957.093 230.617 958.406 232.75L966.445 245.88" stroke="#001A72" stroke-width="2" stroke-miterlimit="10"/>
<path d="M723.631 426.738C786.433 397.255 845.916 369.329 906.562 337.95L941.999 338.278L958.734 345.336" stroke="#001A72" stroke-width="2" stroke-miterlimit="10"/>
<path d="M834.346 299.5C834.346 299.5 842.085 304.634 843.889 308.901C845.694 313.168 836.835 316.451 836.835 316.451V321.374L784.663 343.202V358.137L793.686 366.178L843.561 344.187C843.561 344.187 848.155 341.068 848.647 335.16" stroke="#001A72" stroke-width="2" stroke-miterlimit="10"/>
<path d="M887.53 93.5781C887.53 93.5781 878.835 101.62 868.007 99.8146C857.178 98.1734 850.124 95.5475 850.124 95.5475L831.256 123.776C831.256 123.776 826.663 126.402 818.46 127.222C811.405 127.879 805.663 126.074 805.663 126.074" stroke="#001A72" stroke-width="2" stroke-miterlimit="10"/>
<path d="M795.327 97.3525V141.336" stroke="#001A72" stroke-width="2" stroke-miterlimit="10"/>
<path d="M840.444 78.8076V109.99" stroke="#001A72" stroke-width="2" stroke-miterlimit="10"/>
<path d="M885.726 61.5752V95.3836" stroke="#001A72" stroke-width="2" stroke-miterlimit="10"/>
<path d="M740.038 115.57V156.107" stroke="#001A72" stroke-width="2" stroke-miterlimit="10"/>
<path d="M717.561 200.09L742.499 180.889L754.803 183.35" stroke="#001A72" stroke-width="2" stroke-miterlimit="10"/>
<path d="M657.186 178.427C649.475 176.95 641.107 168.252 636.185 156.271C630.607 142.65 631.428 129.028 637.662 123.612" stroke="#001A72" stroke-width="2" stroke-miterlimit="10"/>
<path d="M899.015 242.105C898.851 241.777 884.085 234.063 884.085 234.063" stroke="#001A72" stroke-width="2" stroke-miterlimit="10"/>
<path d="M894.585 256.219L879.655 248.67" stroke="#001A72" stroke-width="2" stroke-miterlimit="10"/>
<path d="M879.984 248.669C877.359 248.013 876.538 244.074 877.523 240.135C878.507 236.196 881.624 233.406 884.413 234.063" stroke="#001A72" stroke-width="2" stroke-miterlimit="10"/>
<path d="M890.812 221.262L890.976 236.689" stroke="#001A72" stroke-width="2" stroke-miterlimit="10"/>
<path d="M884.085 251.46C884.085 251.46 886.218 259.009 883.429 262.128C880.64 265.246 858.491 278.047 858.491 278.047" stroke="#001A72" stroke-width="2" stroke-miterlimit="10"/>
<path d="M712.475 183.351L734.295 170.549C734.295 170.549 743.155 173.175 746.436 172.683C749.717 172.191 772.03 155.122 772.03 155.122C772.03 155.122 776.296 157.092 779.905 157.748C783.35 158.405 790.733 152.825 790.733 152.825L801.561 147.081L833.061 151.348L834.046 186.633L821.249 199.434" stroke="#001A72" stroke-width="2" stroke-miterlimit="10"/>
<path d="M870.796 130.669L859.311 133.459L832.897 151.02" stroke="#001A72" stroke-width="2" stroke-miterlimit="10"/>
<path d="M876.719 177.094C879.151 175.689 879.434 171.623 877.349 168.013C875.265 164.402 871.604 162.614 869.172 164.019C866.739 165.424 866.457 169.49 868.541 173.1C870.625 176.711 874.286 178.499 876.719 177.094Z" stroke="#001A72" stroke-width="2" stroke-miterlimit="10"/>
<path d="M918.374 146.5V167.759L959.554 175.801" stroke="#001A72" stroke-width="2" stroke-miterlimit="10"/>
<path d="M876.866 176.95L891.14 168.088C891.14 168.088 891.14 161.851 887.53 159.061C883.921 156.271 881.788 156.435 881.788 156.435L869.319 163.821" stroke="#001A72" stroke-width="2" stroke-miterlimit="10"/>
<path d="M886.218 171.206L897.702 177.935L917.718 167.596" stroke="#001A72" stroke-width="2" stroke-miterlimit="10"/>
<path d="M877.346 137L868.663 150.691L874.897 159.389" stroke="#001A72" stroke-width="2" stroke-miterlimit="10"/>
<path d="M866.694 168.908L834.374 186.141" stroke="#001A72" stroke-width="2" stroke-miterlimit="10"/>
<path d="M808.78 209.446L818.296 225.693L828.96 228.155C828.96 228.155 835.522 219.293 842.085 217.323C848.647 215.354 863.577 216.01 872.272 217.652C880.148 219.129 886.546 221.755 894.749 220.606C901.804 219.621 904.593 215.026 904.593 215.026V191.064C904.593 191.064 895.405 195.496 889.827 196.48C886.218 197.137 862.757 196.644 853.241 197.137C843.89 197.629 820.1 200.255 808.78 209.446Z" stroke="#001A72" stroke-width="2" stroke-miterlimit="10"/>
<path d="M981.846 283.5C981.846 283.5 981.046 301.68 980.554 304.634C980.062 307.588 976.617 313.496 976.453 322.687C976.289 331.877 978.093 348.946 973.992 349.766" stroke="#001A72" stroke-width="2" stroke-miterlimit="10"/>
<path d="M887.97 328.605C890.403 327.2 890.685 323.134 888.601 319.523C886.517 315.913 882.856 314.125 880.423 315.529C877.991 316.934 877.708 321 879.792 324.611C881.876 328.222 885.538 330.01 887.97 328.605Z" stroke="#001A72" stroke-width="2" stroke-miterlimit="10"/>
<path d="M951.013 292.222C955.642 289.548 956.164 281.78 952.177 274.873C948.19 267.965 941.205 264.533 936.575 267.207C931.946 269.881 931.425 277.648 935.411 284.556C939.398 291.463 946.383 294.896 951.013 292.222Z" stroke="#001A72" stroke-width="2" stroke-miterlimit="10"/>
<path d="M624.209 351.572C624.209 351.572 630.279 344.351 639.139 345.499C643.732 346.156 648.654 349.766 648.654 349.766" stroke="#001A72" stroke-width="2" stroke-miterlimit="10"/>
<path d="M940.194 24.3201V10.6982" stroke="#001A72" stroke-width="2" stroke-miterlimit="10"/>
</svg>
