<svg width="206" height="40" viewBox="0 0 206 40" fill="none" xmlns="http://www.w3.org/2000/svg">
<path d="M51.5603 9.69397L44.7899 29.1843C43.9592 31.6724 43.0177 33.6491 41.9654 35.1143C40.9409 36.6072 39.7225 37.6854 38.3103 38.3489C36.898 39.0124 35.1812 39.3441 33.1598 39.3441C31.9137 39.3441 30.7784 39.2197 29.7538 38.9709C28.7293 38.7221 27.8431 38.3904 27.0955 37.9757L28.6739 32.5433C29.1446 32.8197 29.6431 33.0271 30.1692 33.1653C30.723 33.3035 31.4568 33.3726 32.3706 33.3726C33.229 33.3726 33.8936 33.2621 34.3643 33.0409C34.8351 32.8197 35.1812 32.4189 35.4027 31.8383L35.6935 31.0504L33.2013 25.1618L27.137 9.69397H36.3165L38.8087 20.932L39.681 25.535L40.7194 20.8076L43.2946 9.69397H51.5603Z" fill="white"/>
<path d="M53.3506 30.4284V9.69397H60.9102L61.284 17.6974L60.4117 16.7851C60.6333 15.1817 61.0902 13.827 61.7824 12.7212C62.4747 11.5877 63.3608 10.7307 64.4407 10.1501C65.5484 9.56956 66.8221 9.27928 68.2621 9.27928C69.6743 9.27928 70.8788 9.55574 71.8757 10.1087C72.9003 10.6339 73.6895 11.4357 74.2433 12.5138C74.7971 13.5644 75.074 14.8637 75.074 16.4119V30.4284H66.6837V18.5683C66.6837 17.4072 66.4898 16.6193 66.1022 16.2046C65.7422 15.7622 65.2161 15.5411 64.5238 15.5411C63.9977 15.5411 63.5131 15.6793 63.07 15.9558C62.6547 16.2046 62.3224 16.6193 62.0732 17.1998C61.8517 17.7804 61.7409 18.5406 61.7409 19.4806V30.4284H53.3506Z" fill="white"/>
<path d="M90.5303 17.3657C90.5303 16.5916 90.3226 15.9834 89.9073 15.5411C89.5196 15.0711 88.9381 14.8361 88.1628 14.8361C87.4428 14.8361 86.8198 15.0296 86.2936 15.4167C85.7952 15.8037 85.4767 16.5363 85.3383 17.6145L78.2356 16.329C78.5125 14.1726 79.5232 12.4586 81.2678 11.1868C83.0123 9.91513 85.5044 9.27928 88.7443 9.27928C90.9595 9.27928 92.8148 9.59721 94.3101 10.2331C95.8331 10.8413 96.9684 11.7398 97.7161 12.9285C98.4914 14.1173 98.8791 15.5411 98.8791 17.1998V24.1666C98.8791 25.2724 99.3775 25.8253 100.374 25.8253C100.79 25.8253 101.108 25.77 101.33 25.6594L100.914 30.1795C100.001 30.6219 98.8652 30.843 97.5084 30.843C96.3177 30.843 95.2654 30.6633 94.3516 30.3039C93.4378 29.9169 92.7179 29.364 92.1918 28.6452C91.6656 27.9264 91.4026 26.9864 91.4026 25.8253V25.4936L92.2333 25.3692C92.2333 26.475 91.8872 27.4426 91.1949 28.272C90.5303 29.1014 89.6442 29.7372 88.5366 30.1795C87.4566 30.6219 86.2521 30.843 84.9229 30.843C83.483 30.843 82.2508 30.6219 81.2262 30.1795C80.2017 29.7372 79.4125 29.1014 78.8587 28.272C78.3325 27.4426 78.0695 26.4335 78.0695 25.2448C78.0695 23.7242 78.5264 22.4802 79.4402 21.5126C80.3817 20.545 81.7939 19.8815 83.6768 19.5221L91.1949 17.9463L91.1534 21.4711L88.0797 22.1761C87.3874 22.3143 86.8751 22.5493 86.5428 22.881C86.2382 23.1851 86.0859 23.6137 86.0859 24.1666C86.0859 24.6918 86.2659 25.1065 86.6259 25.4106C86.9859 25.6871 87.4289 25.8253 87.9551 25.8253C88.3151 25.8253 88.6473 25.77 88.9519 25.6594C89.2565 25.5489 89.5196 25.383 89.7411 25.1618C89.9903 24.9407 90.1842 24.6642 90.3226 24.3324C90.4611 24.0007 90.5303 23.5998 90.5303 23.1298V17.3657Z" fill="white"/>
<path d="M22.2649 6.54836C20.0343 4.16237 16.7847 2.96937 12.5162 2.96937H3.44231V9.91252H11.4836C13.5214 9.91252 14.9396 10.5368 15.7383 11.7852C16.5369 13.006 16.9362 14.1502 16.9362 16.7027C16.9362 19.2552 16.5369 20.4133 15.7383 21.6618C14.9396 22.8825 13.5214 23.4929 11.4836 23.4929H0V30.436H12.5162C16.7847 30.436 20.0343 29.243 22.2649 26.857C24.4955 24.4433 25.6108 21.0585 25.6108 16.7027C25.6108 12.3191 24.4955 8.93435 22.2649 6.54836Z" fill="white"/>
<path d="M105.041 30.3909V9.57521H107.956L108.164 12.8225C108.914 11.5458 109.885 10.616 111.079 10.0332C112.3 9.45032 113.549 9.1589 114.826 9.1589C116.298 9.1589 117.685 9.49195 118.99 10.1581C120.295 10.8242 121.294 11.8511 121.988 13.2388C122.432 12.2951 123.057 11.5319 123.862 10.949C124.667 10.3385 125.541 9.89439 126.485 9.61684C127.456 9.31155 128.372 9.1589 129.233 9.1589C130.565 9.1589 131.828 9.43644 133.022 9.99153C134.243 10.5466 135.243 11.407 136.02 12.5727C136.797 13.7383 137.186 15.2371 137.186 17.0689V30.3909H133.855V17.4019C133.855 15.5146 133.383 14.1547 132.439 13.322C131.495 12.4894 130.329 12.0731 128.942 12.0731C127.859 12.0731 126.846 12.3368 125.902 12.8641C124.958 13.3914 124.195 14.1685 123.612 15.1954C123.057 16.2224 122.779 17.4852 122.779 18.9839V30.3909H119.448V17.4019C119.448 15.5146 118.976 14.1547 118.032 13.322C117.089 12.4894 115.923 12.0731 114.535 12.0731C113.619 12.0731 112.675 12.3229 111.703 12.8225C110.76 13.2943 109.969 14.0575 109.33 15.1122C108.692 16.1668 108.372 17.5546 108.372 19.2753V30.3909H105.041Z" fill="white"/>
<path d="M150.848 9.1589C152.819 9.1589 154.554 9.58909 156.053 10.4495C157.58 11.3099 158.773 12.5588 159.634 14.1963C160.494 15.806 160.925 17.735 160.925 19.9831C160.925 22.2311 160.494 24.1739 159.634 25.8114C158.773 27.4212 157.58 28.6563 156.053 29.5166C154.554 30.377 152.819 30.8072 150.848 30.8072C148.905 30.8072 147.17 30.377 145.643 29.5166C144.117 28.6563 142.923 27.4212 142.063 25.8114C141.202 24.1739 140.772 22.2311 140.772 19.9831C140.772 17.735 141.202 15.806 142.063 14.1963C142.923 12.5588 144.117 11.3099 145.643 10.4495C147.17 9.58909 148.905 9.1589 150.848 9.1589ZM150.848 12.0315C149.433 12.0315 148.225 12.3506 147.226 12.989C146.226 13.6273 145.449 14.5432 144.894 15.7367C144.367 16.9023 144.103 18.3178 144.103 19.9831C144.103 21.6206 144.367 23.036 144.894 24.2295C145.449 25.4229 146.226 26.3388 147.226 26.9771C148.225 27.6155 149.433 27.9346 150.848 27.9346C152.264 27.9346 153.471 27.6155 154.471 26.9771C155.47 26.3388 156.233 25.4229 156.761 24.2295C157.316 23.036 157.593 21.6206 157.593 19.9831C157.593 18.3178 157.316 16.9023 156.761 15.7367C156.233 14.5432 155.47 13.6273 154.471 12.989C153.471 12.3506 152.264 12.0315 150.848 12.0315Z" fill="white"/>
<path d="M172.817 30.8072C171.096 30.8072 169.513 30.377 168.07 29.5166C166.627 28.6563 165.475 27.4212 164.614 25.8114C163.754 24.1739 163.323 22.2311 163.323 19.9831C163.323 17.6794 163.781 15.7228 164.697 14.113C165.613 12.5033 166.821 11.2821 168.32 10.4495C169.819 9.58909 171.429 9.1589 173.15 9.1589C174.871 9.1589 176.356 9.60297 177.605 10.4911C178.882 11.3792 179.729 12.5588 180.145 14.0298L179.729 14.3212V0H183.06V30.3909H180.145L179.853 25.3535L180.311 25.1037C180.117 26.3249 179.645 27.3657 178.896 28.2261C178.174 29.0587 177.272 29.697 176.189 30.1411C175.134 30.5852 174.01 30.8072 172.817 30.8072ZM173.15 27.893C174.482 27.893 175.634 27.56 176.606 26.8939C177.605 26.2278 178.368 25.2841 178.896 24.0629C179.451 22.814 179.729 21.3569 179.729 19.6916C179.729 18.1096 179.451 16.7497 178.896 15.6118C178.368 14.4738 177.619 13.5996 176.647 12.989C175.704 12.3784 174.593 12.0731 173.316 12.0731C171.207 12.0731 169.569 12.7947 168.403 14.2379C167.237 15.6811 166.654 17.5962 166.654 19.9831C166.654 22.3699 167.223 24.285 168.361 25.7282C169.5 27.1714 171.096 27.893 173.15 27.893Z" fill="white"/>
<path d="M197.006 30.8072C195.035 30.8072 193.273 30.377 191.718 29.5166C190.192 28.6563 188.998 27.4212 188.137 25.8114C187.277 24.1739 186.847 22.2311 186.847 19.9831C186.847 17.735 187.277 15.806 188.137 14.1963C188.998 12.5588 190.178 11.3099 191.677 10.4495C193.176 9.58909 194.883 9.1589 196.798 9.1589C198.741 9.1589 200.393 9.57521 201.753 10.4078C203.141 11.2405 204.196 12.3784 204.917 13.8216C205.639 15.2371 206 16.8329 206 18.6092C206 19.081 205.986 19.5112 205.958 19.8998C205.931 20.2883 205.889 20.6353 205.833 20.9406H189.012V17.9847H204.376L202.669 18.3178C202.669 16.3195 202.114 14.7791 201.003 13.6967C199.921 12.6143 198.491 12.0731 196.715 12.0731C195.355 12.0731 194.175 12.3923 193.176 13.0306C192.204 13.6412 191.441 14.5432 190.885 15.7367C190.358 16.9023 190.094 18.3178 190.094 19.9831C190.094 21.6206 190.372 23.036 190.927 24.2295C191.482 25.4229 192.26 26.3388 193.259 26.9771C194.286 27.5877 195.507 27.893 196.923 27.893C198.45 27.893 199.685 27.6016 200.629 27.0188C201.6 26.4359 202.378 25.6449 202.96 24.6458L205.584 26.1861C205.056 27.1298 204.376 27.9485 203.543 28.6424C202.738 29.3362 201.781 29.8774 200.67 30.266C199.588 30.6268 198.366 30.8072 197.006 30.8072Z" fill="white"/>
</svg>
