<svg width="122" height="66" viewBox="0 0 122 66" fill="none" xmlns="http://www.w3.org/2000/svg">
<path d="M20.4 64H120V20.4L101.4 1.69995H1.69995V45.2999L20.4 64Z" fill="#001A72"/>
<path fill-rule="evenodd" clip-rule="evenodd" d="M0.199951 0.199951H1.69995H101.4H102.024L102.463 0.642138L121.063 19.3421L121.5 19.781V20.4V64V65.5H120H20.4H19.7786L19.3393 65.0606L0.639291 46.3606L0.199951 45.9213V45.2999V1.69995V0.199951ZM3.19995 5.32127V44.6786L18.8999 60.3786V21.0212L3.19995 5.32127ZM5.32127 3.19995L21.0213 18.9H116.392L100.776 3.19995H5.32127ZM118.5 62.5H21.8999V21.9H118.5V62.5Z" fill="white"/>
<path d="M46.2 46.5C46.2 49.8 44.1 52.6 38.8 52.6C36.5 52.6 34.7 52.1001 33 51.4001V46.9001C34.7 47.8001 36.8 48.3 38.7 48.3C40.4 48.3 41.3 47.8 41.3 46.8C41.3 43.8 33 44.7 33 38.5C33 34.7 36.1 32.3 40.3 32.3C42.1 32.3 43.7 32.7001 45.4 33.7001V38.5C43.1 37.1 41.5 36.6 40.2 36.6C38.6 36.6 37.8 37.2 37.8 38.1C37.7 41 46.2 39.9 46.2 46.5Z" fill="white"/>
<path d="M79.3 32.7999L73 52.2H68.2L64 38.7999L59.7 52.0999H54.9L48.6 32.7H54L57.5 45.7L61.6 32.7H66.4L70.5 45.7L74 32.7H79.3V32.7999Z" fill="white"/>
<path d="M109.4 39.4001V52.2001H104.6V40.2001C104.6 38.1001 103.1 36.9001 101.5 36.9001C99.8 36.9001 98.4 38.1001 98.4 40.2001V52.2001H93.6V40.2001C93.6 38.1001 92.1 36.9001 90.5 36.9001C88.8 36.9001 87.4 38.1001 87.4 40.2001V52.2001H82.6V32.8H87.1V34.2001C88.5 32.8001 90 32.3 91.8 32.3C93.8 32.3 95.6 33.2 96.8 34.8C98.4 33.1 100.4 32.3 102.7 32.3C106.6 32.4 109.4 35.2001 109.4 39.4001Z" fill="white"/>
</svg>
